# xmcd
#
# Track frame offsets:
#	150
#	23250
#	42377
#	59268
#	74019
#	91827
#	112367
#	128792
#	143567
#	158184
#	181284
#	200411
#	217302
#	232053
#	249861
#	270401
#	286826
#	301601
#
# Disc length: 4216
#
# Revision: 1
# Processed by: cddbd v1.5.2PL0 Copyright (c) Steve Scherf et al.
# Submitted via: kJams Pro (development) 1.0patch49.33
#
DISCID=01107612
DTITLE=Pop Hits Monthly - Nashville Edition
DYEAR=1900
DGENRE=country
TTITLE0=Alan Jackson - Where Were You
TTITLE1=Garth Brooks - Wrapped In You
TTITLE2=Brooks and Dunn - The Long Goodbye
TTITLE3=Lee Ann Womack - Does My Ring Burn Your Finger
TTITLE4=Martina McBride - Blessed
TTITLE5=Mark Wills ⁄ Jamie O'Neal - I'm Not Gonna Do Anything Without You
TTITLE6=Patty Loveless ⁄ Travis Tritt - Out Of Control Raging Fire
TTITLE7=Cyndi Thompson - I Always Liked That Best
TTITLE8=Blake Shelton - All Over Me
TTITLE9=Alan Jackson - Where Were You (Vocal)
TTITLE10=Garth Brooks - Wrapped In You (Vocal)
TTITLE11=Brooks and Dunn - The Long Goodbye (Vocal)
TTITLE12=Lee Ann Womack - Does My Ring Burn Your Finger (Vocal)
TTITLE13=Martina McBride - Blessed (Vocal)
TTITLE14=Mark Wills ⁄ Jamie O'Neal - I'm Not Gonna Do Anything Without You (Vocal)
TTITLE15=Patty Loveless ⁄ Travis Tritt - Out Of Control Raging Fire (Vocal)
TTITLE16=Cyndi Thompson - I Always Liked That Best (Vocal)
TTITLE17=Blake Shelton - All Over Me (Vocal)
EXTD=Karaoke
EXTT0=
EXTT1=
EXTT2=
EXTT3=
EXTT4=
EXTT5=
EXTT6=
EXTT7=
EXTT8=
EXTT9=
EXTT10=
EXTT11=
EXTT12=
EXTT13=
EXTT14=
EXTT15=
EXTT16=
EXTT17=
PLAYORDER=
